<svg id="Layer_3" enable-background="new 0 0 64 64" height="512" viewBox="0 0 64 64" width="512" xmlns="http://www.w3.org/2000/svg"><g><path d="m62.383 9.076c-.375-.155-.804-.07-1.09.217-1.746 1.746-4.067 2.707-6.536 2.707-1.111 0-2.23-.093-3.326-.275-2.505-.418-5.056-.645-7.6-.701.104-.325.169-.666.169-1.024 0-.535-.422-.976-.957-.999l-7.513-.327 7.801-2.73c.4-.141.669-.519.669-.944 0-1.654-1.346-3-3-3-.736 0-1.474.081-2.193.241-5.372 1.193-10.7 2.801-15.838 4.777l-2.384.917-.691-1.382c-.124-.247-.343-.431-.607-.511l-6.693-2.008c-.765-1.782-2.535-3.034-4.594-3.034-1.933 0-3.594 1.115-4.426 2.724-.355-.5-.574-1.092-.574-1.724 0-.552-.448-1-1-1s-1 .448-1 1c0 1.581.754 3.061 2 3.998v.002c0 2.757 2.243 5 5 5 1.366 0 2.603-.553 3.506-1.444l3.881 1.294.149.199-2.048 2.048-3.696.924c-1.589.067-2.984.869-3.854 2.084-.585-.53-.938-1.288-.938-2.105h-2c0 1.613.808 3.091 2.105 3.983-.068.328-.105.668-.105 1.017 0 2.757 2.243 5 5 5 2.599 0 4.717-2.001 4.953-4.539l1.695-1.695 3.873-2.766h.314c.639 0 1.281-.03 1.921-.04-2.985 2.778-4.756 6.725-4.756 10.871 0 5.548 1.045 10.973 3.105 16.125l2.853 7.131-2.936 13.703 1.956.419 2.915-13.603.601-.401c3.445-2.297 5.812-5.957 6.493-10.042.048-.29-.033-.586-.223-.811-.191-.223-.47-.352-.764-.352-1.654 0-3-1.346-3-3v-4.21c0-1.538 1.251-2.79 2.79-2.79 1.369 0 2.527.98 2.752 2.331l.472 2.833c.058.347.294.639.623.767s.7.074.978-.142l7.963-6.193c.903-.703 1.422-1.764 1.422-2.91 0-.93.756-1.686 1.686-1.686h7.696l2.464 4.928-1.678 2.517c-.23.346-.223.798.019 1.136l4.463 6.249c.229.321.35.699.35 1.093 0 .811-.517 1.528-1.287 1.785l-1.03.343c-.34.114-.594.401-.664.752l-.412 2.059c-.207 1.035-.36 2.083-.461 3.136h-4.146v2h4.025c-.011.334-.025.668-.025 1.002 0 2.757-2.243 5-5 5h-7.465l-1.703-2.555-1.664 1.109 1.744 2.615-1.873 6.555 1.923.55 1.792-6.274h7.246c3.86 0 7-3.14 7-7 0-1.924.191-3.857.569-5.746l.298-1.489.479-.16c1.588-.528 2.654-2.008 2.654-3.682 0-.814-.25-1.594-.723-2.256l-4.062-5.687 1.617-2.426c.199-.298.223-.681.062-1.002l-2.363-4.727c3.125-.7 5.469-3.492 5.469-6.825v-6c0-.404-.244-.769-.617-.924zm-23.142-4.883c.577-.128 1.169-.193 1.759-.193.312 0 .592.144.775.369l-11.63 4.071-4.677-.203c4.494-1.639 9.113-3.009 13.773-4.044zm-31.241 4.807c-1.654 0-3-1.346-3-3s1.346-3 3-3 3 1.346 3 3-1.346 3-3 3zm2 13c-1.654 0-3-1.346-3-3s1.346-3 3-3 3 1.346 3 3-1.346 3-3 3zm5.419-5.814c-.045.032-.087.068-.126.107l-.713.713c-.304-.696-.773-1.296-1.342-1.785l1.005-.251c.176-.044.336-.135.464-.263l2.042-2.042 1.256 1.674zm4.081-3.186-2.7-3.6c-.122-.163-.291-.284-.483-.349l-3.673-1.224c.196-.496.306-1.031.333-1.59l5.323 1.597.807 1.614c.163.325.488.536.851.552l21.667.942c-.197.207-.46.351-.761.401-6.601 1.099-13.339 1.657-20.03 1.657zm41.5 3c0 2.757-2.243 5-5 5h-8.314c-2.033 0-3.686 1.653-3.686 3.686 0 .524-.237 1.009-.651 1.331l-6.639 5.164-.196-1.179c-.387-2.319-2.373-4.002-4.724-4.002-2.642 0-4.79 2.148-4.79 4.79v4.21c0 2.344 1.621 4.316 3.801 4.854-.776 3.093-2.681 5.826-5.333 7.625l-2.506-6.266c-1.965-4.914-2.962-10.089-2.962-15.382 0-4.425 2.334-8.584 6.166-10.951 5.035-.218 10.069-.739 15.026-1.565.337-.056.648-.17.94-.315h.543c2.815 0 5.651.235 8.428.697 1.204.201 2.434.303 3.654.303 2.256 0 4.41-.66 6.243-1.888z"/></g></svg>