<svg id="Capa_1" enable-background="new 0 0 511.909 511.909" height="512" viewBox="0 0 511.909 511.909" width="512" xmlns="http://www.w3.org/2000/svg"><g><path d="m480.238 132.543c-3.781-1.689-8.217.004-9.907 3.788l-52.982 118.563c-4.434 10.017-14.369 16.483-25.32 16.483-.009 0-.02 0-.029 0l-213.675-.227c-.006 0-.012 0-.018 0-3.434 0-6.765.996-9.623 2.873l-117.751 77.017c-5.805 3.773-13.613 2.13-17.409-3.653l-16.556-25.222c-3.037-4.722-2.921-13.103 3.684-17.499l58.157-38.047c3.467-2.268 4.438-6.916 2.171-10.382-2.268-3.467-6.915-4.438-10.383-2.171l-58.14 38.036c-11.893 7.449-16.707 25.352-8.029 38.293l16.556 25.222c8.167 12.255 24.925 16.296 38.142 7.988l117.78-77.037c.417-.273.901-.418 1.399-.418h.003l26.803.028v3.332c0 21.569 14.456 39.814 34.184 45.587v50.757h-38.325c-23.985 0-46.265 10.797-61.125 29.622l-7.047 8.926h-9.722c-9.649 0-17.5 7.851-17.5 17.5v18.12c0 9.649 7.851 17.5 17.5 17.5h48.823c4.143 0 7.5-3.357 7.5-7.5s-3.357-7.5-7.5-7.5h-48.823c-1.379 0-2.5-1.121-2.5-2.5v-18.12c0-1.379 1.121-2.5 2.5-2.5h308.769c1.379 0 2.5 1.121 2.5 2.5v18.12c0 1.379-1.121 2.5-2.5 2.5h-224.946c-4.143 0-7.5 3.357-7.5 7.5s3.357 7.5 7.5 7.5h224.945c9.649 0 17.5-7.851 17.5-17.5v-18.12c0-9.649-7.851-17.5-17.5-17.5h-9.722l-7.047-8.926c-14.861-18.825-37.141-29.622-61.125-29.622h-39.33v-50.757c19.728-5.773 34.184-24.018 34.184-45.587v-3.18l43.18.046h.045c16.882-.001 32.202-9.971 39.026-25.388l52.972-118.539c1.688-3.78-.007-8.215-3.789-9.906zm-77.245 291.86h-251.066c11.997-14.967 29.839-23.548 49.043-23.548h152.98c19.203 0 37.045 8.582 49.043 23.548zm-148.699-38.548v-48.844h45.325v48.844zm79.509-96.344c0 17.921-14.579 32.5-32.5 32.5h-48.692c-17.921 0-32.5-14.579-32.5-32.5v-3.316l113.692.12z"/><path d="m510.056 64.293c-2.652-6.9-7.836-12.349-14.597-15.341l-27.592-12.212c-11.88-5.257-25.559-1.401-33.128 8.519l-16.972-7.44c-12.518-5.809-30.521-.041-36.404 14.279l-16.774 39.488c-6.111 13.943.26 30.258 14.23 36.382l15.157 6.57-3.809 8.51h-99.135c-28.806 0-52.24 23.436-52.24 52.241v5.547l-73.94-.078c-.018 0-.032 0-.05 0-8.344 0-16.442 2.421-23.41 6.994l-40.858 26.729c-3.467 2.268-4.438 6.916-2.171 10.382 1.439 2.2 3.837 3.396 6.283 3.396 1.408 0 2.833-.396 4.099-1.225l40.868-26.735c4.526-2.972 9.778-4.541 15.19-4.541 48.871.052 149.557.158 197.788.209 6.94-.001 13.239-4.1 16.038-10.421l23.303-52.067c.002-.005.005-.01.007-.016l43.246-96.628c2.829-6.319 10.276-9.183 16.611-6.379l27.593 12.213c5.102 2.309 9.555 9.419 6.407 16.673l-11.186 25.032c-1.689 3.781.006 8.217 3.788 9.907 3.778 1.688 8.216-.005 9.907-3.788l11.186-25.032c3.016-6.749 3.217-14.266.565-21.168zm-125.244 49.924c-6.367-2.791-9.276-10.241-6.451-16.688l16.774-39.488c2.286-5.099 9.352-9.573 16.609-6.484l16.193 7.098-27.833 62.19zm-22.223 86.75c-.001 0-.002 0-.003 0l-79.638-.084v-5.594c0-4.458 3.626-8.084 8.084-8.084h18.866c4.143 0 7.5-3.357 7.5-7.5s-3.357-7.5-7.5-7.5h-18.866c-12.729 0-23.084 10.355-23.084 23.084v5.578l-14.156-.015v-5.563c0-20.535 16.706-37.241 37.24-37.241h92.421l-6.336 14.157h-32.219c-4.143 0-7.5 3.357-7.5 7.5s3.357 7.5 7.5 7.5h25.506l-5.479 12.241c-.408.925-1.325 1.521-2.336 1.521z"/></g></svg>