<svg height="512" viewBox="0 0 60 60" width="512" xmlns="http://www.w3.org/2000/svg"><g id="Page-1" fill="none" fill-rule="evenodd"><g id="001---Clean-Water" fill="rgb(0,0,0)" fill-rule="nonzero"><path id="Shape" d="m33.4 44.8c.3850615.2888405.9212638.2623665 1.276-.063l12-11c.4070339-.3733445.4343445-1.0059661.061-1.413s-1.0059661-.4343445-1.413-.061l-11.388 10.437-3.336-2.5c-.4418278-.3313708-1.0686292-.2418278-1.4.2s-.2418278 1.0686292.2 1.4z"/><path id="Shape" d="m1 15c1.41374992.1024866 2.77027894.6000538 3.915 1.436.58267341.4308473 1.10381617.9392054 1.549 1.511-3.844 6.763-6.01 13.169-6.412 19.044-.3899067 5.899384 1.62144655 11.7058726 5.577 16.1 3.72785498 4.2078774 9.0188185 6.7020804 14.637 6.9.235.008.469.011.7.011 5.5530671-.0054253 10.8766324-2.2161438 14.8-6.146 3.5912907.5453792 7.260188-.1838009 10.37-2.061l7.034 7.033c1.5748565 1.4778452 4.038467 1.4387098 5.5655884-.0884116s1.5662568-3.9907319.0884116-5.5655884l-7.033-7.034c2.9337936-4.9447524 2.985813-11.0841927.1362283-16.0779477s-8.1616529-8.0722877-13.9112283-8.0620523c-.135 0-.266.017-.4.02-3.9498743-7.8763499-9.0812052-15.10223222-15.216-21.427-.3760333-.37987964-.8884821-.59342998-1.423-.593h-.013c-.5282131.00431874-1.0325877.22047931-1.4.6-2.4793135 2.54742229-4.7996892 5.24484242-6.948 8.077-1.1580404-2.38845402-1.7129004-5.02438233-1.616-7.677 0-.55228475-.4477153-1-1-1-.55228475 0-1 .44771525-1 1 0 11.769-7.66 12-8 12-.55228475 0-1 .4477153-1 1s.44771525 1 1 1zm56.413 39.587c.7262072.7890197.7009029 2.0103747-.0573612 2.7686388s-1.9796191.7835684-2.7686388.0573612l-6.764-6.764c1.0558331-.8208391 2.0051609-1.7701669 2.826-2.826zm-5.382-16.571c0 5.6690338-3.414997 10.7798393-8.65254 12.9491912s-11.266153.9700191-15.2746222-3.0387362c-4.0084693-4.0087552-5.2073719-10.0374507-3.0376463-15.2748389 2.1697256-5.2373883 7.2807747-8.6520206 12.9498085-8.6516161 7.7370055.0088183 14.0067337 6.2789939 14.015 14.016zm-31.05-36.011c5.8035824 5.98801591 10.6921925 12.7993175 14.508 20.214-7.3729114 1.1697555-12.9570956 7.2826251-13.456956 14.7310001s4.217459 14.2525785 11.367956 16.3969999c-3.6094321 3.1485612-8.2801041 4.8085138-13.067 4.644-5.0744436-.1804624-9.8527203-2.4345916-13.219-6.236-3.59383505-3.9920138-5.42127113-9.2673063-5.067-14.627.362-5.292 2.261-11.077 5.612-17.21.95076609 2.2368603 1.40815516 4.652393 1.341 7.082 0 .5522847.44771525 1 1 1 .5522847 0 1-.4477153 1-1 0-11.783 7.678-12 8-12 .5522847 0 1-.4477153 1-1s-.4477153-1-1-1c-1.4137499-.1024866-2.7702789-.6000538-3.915-1.436-.4616042-.3441557-.8841237-.7378365-1.26-1.174 2.2025293-2.94598348 4.5928269-5.74680029 7.156-8.385zm-10.981 5.679c.3921133 1.1515237.9543391 2.23788693 1.668 3.223.015152.0259773.0318487.0510223.05.075.9426237 1.2782518 2.1768479 2.3129431 3.6 3.018-2.5528131 1.3008488-4.4709333 3.5789322-5.318 6.316-.35923899-1.0422566-.85703513-2.0314582-1.48-2.941-.03317742-.0627296-.07344056-.1214467-.12-.175-.95483648-1.3584433-2.23251066-2.458109-3.718-3.2 2.55281307-1.3008488 4.47093327-3.5789322 5.318-6.316z"/><path id="Shape" d="m18.179 53.016c-10.097-1.836-11.143-12.641-11.179-13.1-.04611578-.5522847-.53121525-.9626158-1.0835-.9165s-.96261578.5312153-.9165 1.0835c.011.127 1.2 12.788 12.818 14.9.0600296.0111452.1209447.0168351.182.017.5175918-.0000872.9495797-.3951199.9958311-.9106412.0462514-.5155212-.3085207-.9811403-.8178311-1.0733588z"/></g></g></svg>